<?xml version="1.0" encoding="UTF-8" standalone="no"?>
<!-- Created with Inkscape (http://www.inkscape.org/) -->

<svg
   width="210mm"
   height="297mm"
   viewBox="0 0 210 297"
   version="1.1"
   id="svg5"
   sodipodi:docname="HookSapienLogo.svg"
   inkscape:version="1.1.1 (3bf5ae0d25, 2021-09-20)"
   xmlns:inkscape="http://www.inkscape.org/namespaces/inkscape"
   xmlns:sodipodi="http://sodipodi.sourceforge.net/DTD/sodipodi-0.dtd"
   xmlns:xlink="http://www.w3.org/1999/xlink"
   xmlns="http://www.w3.org/2000/svg"
   xmlns:svg="http://www.w3.org/2000/svg">
  <sodipodi:namedview
     id="namedview7"
     pagecolor="#ffffff"
     bordercolor="#666666"
     borderopacity="1.0"
     inkscape:pageshadow="2"
     inkscape:pageopacity="0.0"
     inkscape:pagecheckerboard="0"
     inkscape:document-units="px"
     showgrid="false"
     showborder="false"
     inkscape:object-paths="true"
     inkscape:snap-intersection-paths="true"
     inkscape:snap-smooth-nodes="true"
     inkscape:object-nodes="true"
     inkscape:snap-nodes="true"
     inkscape:zoom="0.044194174"
     inkscape:cx="-395.9798"
     inkscape:cy="1029.5475"
     inkscape:window-width="1366"
     inkscape:window-height="745"
     inkscape:window-x="-8"
     inkscape:window-y="-8"
     inkscape:window-maximized="1"
     inkscape:current-layer="layer1" />
  <defs
     id="defs2">
    <linearGradient
       inkscape:collect="always"
       id="linearGradient11081">
      <stop
         style="stop-color:#ff6600;stop-opacity:1;"
         offset="0"
         id="stop11077" />
      <stop
         style="stop-color:#ff00cc;stop-opacity:1"
         offset="1"
         id="stop11079" />
    </linearGradient>
    <linearGradient
       inkscape:collect="always"
       id="linearGradient10669">
      <stop
         style="stop-color:#ff6600;stop-opacity:1"
         offset="0"
         id="stop10665" />
      <stop
         style="stop-color:#cc00ff;stop-opacity:1"
         offset="1"
         id="stop10667" />
    </linearGradient>
    <linearGradient
       inkscape:collect="always"
       id="linearGradient10423">
      <stop
         style="stop-color:#ff6600;stop-opacity:1"
         offset="0"
         id="stop10419" />
      <stop
         style="stop-color:#cc00ff;stop-opacity:1"
         offset="1"
         id="stop10421" />
    </linearGradient>
    <linearGradient
       inkscape:collect="always"
       xlink:href="#linearGradient10423"
       id="linearGradient10425"
       x1="547.06543"
       y1="17.41082"
       x2="355.71692"
       y2="-321.23361"
       gradientUnits="userSpaceOnUse"
       gradientTransform="scale(3.7795275)" />
    <linearGradient
       inkscape:collect="always"
       xlink:href="#linearGradient10669"
       id="linearGradient10671"
       x1="206.67865"
       y1="17.41082"
       x2="15.330108"
       y2="-321.23361"
       gradientUnits="userSpaceOnUse"
       gradientTransform="scale(3.7795275)" />
    <linearGradient
       inkscape:collect="always"
       xlink:href="#linearGradient11081"
       id="linearGradient11083"
       x1="1677.1016"
       y1="65.804688"
       x2="953.89453"
       y2="-1214.1113"
       gradientUnits="userSpaceOnUse" />
  </defs>
  <g
     inkscape:label="Layer 1"
     inkscape:groupmode="layer"
     id="layer1">
    <g
       id="g14219">
      <g
         id="g14309"
         transform="translate(-1089.6044,-171.94743)">
        <g
           id="g14315"
           transform="translate(-374.17734,8.9802561)">
          <g
             id="g14742"
             inkscape:export-filename="C:\Users\Swastik Tripathi\Desktop\drawing.png"
             inkscape:export-xdpi="96"
             inkscape:export-ydpi="96">
            <g
               id="g14771">
              <path
                 id="path5284"
                 style="opacity:0.625;fill:#000000;stroke-width:1.08639"
                 d="m 953.89453,-1214.1113 c 0,0 -16.66613,21.7182 -41.75391,55.2383 -17.16983,23.0118 -38.20277,51.5372 -63.7539,87.0371 -66.43368,91.98646 -154.78558,219.47281 -248.08984,368.69332 C 399.2746,-381.64983 189.04848,22.374328 197.99023,297.70117 a 755.9055,755.9055 0 0 0 755.9043,755.90433 755.9055,755.9055 0 0 0 755.90627,-755.90433 755.9055,755.9055 0 0 0 -0.2676,-19.91601 c -0.2835,-64.90634 -12.2334,-136.52694 -32.4316,-211.980472 A 370.14064,377.88397 0 0 1 1307.4941,430.51367 370.14064,377.88397 0 0 1 937.35352,52.630859 c -4.37844,-137.638374 98.56238,-339.614889 196.99608,-500.332029 45.6878,-74.59661 88.9502,-138.32767 121.4805,-184.3125 12.5115,-17.74677 22.8112,-32.0079 31.2187,-43.51172 12.2846,-16.75699 20.4453,-27.61328 20.4453,-27.61328 -93.1789,-149.02001 -181.4496,-276.41199 -247.8613,-368.38083 -25.6267,-35.6097 -46.7032,-64.188 -63.91991,-87.2637 -25.11928,-33.5632 -41.81836,-55.3281 -41.81836,-55.3281 z"
                 transform="scale(0.26458333)" />
              <path
                 id="path7887"
                 style="opacity:1;fill:url(#linearGradient11083);fill-opacity:1;stroke-width:1.08639"
                 d="m 953.89453,-1214.1113 c 0,0 -16.66613,21.7182 -41.75391,55.2383 -17.16983,23.0118 -38.20277,51.5372 -63.7539,87.0371 -66.43368,91.98646 -154.78558,219.47281 -248.08984,368.69332 C 399.2746,-381.64983 189.04848,22.374328 197.99023,297.70117 a 755.9055,755.9055 0 0 0 755.9043,755.90433 755.9055,755.9055 0 0 0 755.90627,-755.90433 755.9055,755.9055 0 0 0 -0.2676,-19.91601 c -0.2835,-64.90634 -12.2334,-136.52694 -32.4316,-211.980472 A 370.14064,377.88397 0 0 1 1307.4941,430.51367 370.14064,377.88397 0 0 1 937.35352,52.630859 c -4.37844,-137.638374 98.56238,-339.614889 196.99608,-500.332029 45.6878,-74.59661 88.9502,-138.32767 121.4805,-184.3125 12.5115,-17.74677 22.8112,-32.0079 31.2187,-43.51172 12.2846,-16.75699 20.4453,-27.61328 20.4453,-27.61328 -93.1789,-149.02001 -181.4496,-276.41199 -247.8613,-368.38083 -25.6267,-35.6097 -46.7032,-64.188 -63.91991,-87.2637 -25.11928,-33.5632 -41.81836,-55.3281 -41.81836,-55.3281 z"
                 transform="scale(0.26458333)" />
              <path
                 id="path7865"
                 style="opacity:1;fill:url(#linearGradient10425);fill-opacity:1;stroke-width:1.08639"
                 d="m 1149.0703,-944.19531 c -48.5992,70.71094 -102.4699,151.88166 -158.22655,241.05273 C 789.82149,-381.64984 579.59535,22.374331 588.53711,297.70117 A 755.90547,755.90547 0 0 0 1145.2852,1026.7402 755.90549,755.90549 0 0 0 1697.0137,430.44922 370.14063,377.88396 0 0 1 1501.1016,371.8457 370.14063,377.88396 0 0 1 1307.4941,430.51367 370.14063,377.88396 0 0 1 937.35352,52.630859 c -4.37844,-137.638372 98.56238,-339.614889 196.99608,-500.332029 45.6878,-74.59661 88.9502,-138.32767 121.4805,-184.3125 12.5115,-17.74677 22.8112,-32.0079 31.2187,-43.51172 12.2846,-16.75699 20.4453,-27.61328 20.4453,-27.61328 -56.0445,-89.63151 -109.6189,-170.07561 -158.4238,-241.05664 z"
                 transform="scale(0.26458333)" />
              <path
                 id="path7885"
                 style="opacity:1;fill:url(#linearGradient10671);fill-opacity:1;stroke-width:1.08639"
                 d="M 781.14844,65.804688 A 370.14063,377.88396 0 0 1 411.54102,430.51367 370.14063,377.88396 0 0 1 203.27539,364.85547 755.90549,755.90549 0 0 0 505.75781,905.9707 755.90547,755.90547 0 0 0 813.84766,297.70117 755.90547,755.90547 0 0 0 813.58008,277.78516 C 813.29661,212.87882 801.34665,141.25822 781.14844,65.804688 Z"
                 transform="scale(0.26458333)" />
            </g>
          </g>
        </g>
      </g>
      <text
         xml:space="preserve"
         style="font-style:normal;font-weight:normal;font-size:501.39px;line-height:1.25;font-family:sans-serif;fill:#000000;fill-opacity:1;stroke:none;stroke-width:0.376042"
         x="-912.61078"
         y="23.543598"
         id="text1129"><tspan
           sodipodi:role="line"
           id="tspan1127"
           style="font-style:normal;font-variant:normal;font-weight:normal;font-stretch:normal;font-size:501.39px;font-family:'Proxima Nova';-inkscape-font-specification:'Proxima Nova';stroke-width:0.376042"
           x="-912.61078"
           y="23.543598"
           rotate="0 0 0 0 0 0 0 0 0 0 0"><tspan
             style="fill:#ff6600"
             id="tspan8517">Hook</tspan><tspan
             style="fill:#ff00cc"
             id="tspan13499">Sapien</tspan></tspan></text>
    </g>
  </g>
</svg>
